<mxfile host="drawio-plugin" modified="2021-04-30T15:56:19.655Z" agent="5.0 (X11; Linux x86_64) AppleWebKit/537.36 (KHTML, like Gecko) Chrome/87.0.4280.141 Safari/537.36" etag="-SQF-Nq1FfQSADqJy3Nn" version="13.7.9" type="embed"><diagram id="C5RBs43oDa-KdzZeNtuy" name="Page-1"><mxGraphModel dx="858" dy="591" grid="1" gridSize="10" guides="1" tooltips="1" connect="1" arrows="1" fold="1" page="1" pageScale="1" pageWidth="827" pageHeight="1169" background="#F4F1DE" math="0" shadow="0"><root><mxCell id="WIyWlLk6GJQsqaUBKTNV-0"/><mxCell id="WIyWlLk6GJQsqaUBKTNV-1" parent="WIyWlLk6GJQsqaUBKTNV-0"/><mxCell id="fyw5Tm3V_V71cJC1jxcN-7" value="" style="group;fontColor=#393C56;" parent="WIyWlLk6GJQsqaUBKTNV-1" vertex="1" connectable="0"><mxGeometry x="50" y="150" width="160" height="100" as="geometry"/></mxCell><mxCell id="fyw5Tm3V_V71cJC1jxcN-0" value="&lt;p style=&quot;margin: 0px ; margin-top: 4px ; text-align: center ; text-decoration: underline&quot;&gt;&lt;b&gt;сar1: Car&lt;/b&gt;&lt;/p&gt;&lt;hr&gt;&lt;p style=&quot;margin: 0px ; margin-left: 8px&quot;&gt;length = 5.1&lt;br&gt;width = 2.2&lt;br&gt;&lt;/p&gt;" style="verticalAlign=top;align=left;overflow=fill;fontSize=12;fontFamily=Helvetica;html=1;fillColor=#F2CC8F;strokeColor=#E07A5F;fontColor=#393C56;" parent="fyw5Tm3V_V71cJC1jxcN-7" vertex="1"><mxGeometry width="160" height="70" as="geometry"/></mxCell><mxCell id="fyw5Tm3V_V71cJC1jxcN-10" value="" style="group;fontColor=#393C56;" parent="WIyWlLk6GJQsqaUBKTNV-1" vertex="1" connectable="0"><mxGeometry x="50" y="10" width="160" height="100" as="geometry"/></mxCell><mxCell id="fyw5Tm3V_V71cJC1jxcN-1" value="Car" style="swimlane;fontStyle=1;align=center;verticalAlign=top;childLayout=stackLayout;horizontal=1;startSize=30;horizontalStack=0;resizeParent=1;resizeParentMax=0;resizeLast=0;collapsible=1;marginBottom=0;html=1;fillColor=#F2CC8F;strokeColor=#E07A5F;fontColor=#393C56;" parent="fyw5Tm3V_V71cJC1jxcN-10" vertex="1"><mxGeometry width="160" height="70" as="geometry"/></mxCell><mxCell id="fyw5Tm3V_V71cJC1jxcN-2" value="+ length: float&#10;+ width: float" style="text;strokeColor=none;fillColor=none;align=left;verticalAlign=top;spacingLeft=4;spacingRight=4;overflow=hidden;rotatable=0;points=[[0,0.5],[1,0.5]];portConstraint=eastwest;fontColor=#393C56;" parent="fyw5Tm3V_V71cJC1jxcN-1" vertex="1"><mxGeometry y="30" width="160" height="40" as="geometry"/></mxCell><mxCell id="fyw5Tm3V_V71cJC1jxcN-5" value="+ parameters(): dict" style="text;fillColor=none;align=left;verticalAlign=top;spacingLeft=4;spacingRight=4;overflow=hidden;rotatable=0;points=[[0,0.5],[1,0.5]];portConstraint=eastwest;fontColor=#393C56;" parent="fyw5Tm3V_V71cJC1jxcN-10" vertex="1"><mxGeometry y="70" width="160" height="30" as="geometry"/></mxCell><mxCell id="fyw5Tm3V_V71cJC1jxcN-12" style="edgeStyle=orthogonalEdgeStyle;orthogonalLoop=1;jettySize=auto;html=1;exitX=0;exitY=0.25;exitDx=0;exitDy=0;entryX=0;entryY=0.25;entryDx=0;entryDy=0;endArrow=block;endFill=0;endSize=11;startSize=11;labelBackgroundColor=#F4F1DE;strokeColor=#E07A5F;fontColor=#393C56;" parent="WIyWlLk6GJQsqaUBKTNV-1" source="fyw5Tm3V_V71cJC1jxcN-0" target="fyw5Tm3V_V71cJC1jxcN-1" edge="1"><mxGeometry relative="1" as="geometry"/></mxCell><mxCell id="fyw5Tm3V_V71cJC1jxcN-13" value="" style="group;fontColor=#393C56;" parent="WIyWlLk6GJQsqaUBKTNV-1" vertex="1" connectable="0"><mxGeometry x="280" y="130" width="160" height="100" as="geometry"/></mxCell><mxCell id="fyw5Tm3V_V71cJC1jxcN-14" value="CarAdapted" style="swimlane;fontStyle=1;align=center;verticalAlign=top;childLayout=stackLayout;horizontal=1;startSize=30;horizontalStack=0;resizeParent=1;resizeParentMax=0;resizeLast=0;collapsible=1;marginBottom=0;html=1;fillColor=#F2CC8F;strokeColor=#E07A5F;fontColor=#393C56;" parent="fyw5Tm3V_V71cJC1jxcN-13" vertex="1"><mxGeometry width="160" height="60" as="geometry"/></mxCell><mxCell id="fyw5Tm3V_V71cJC1jxcN-16" value="+ parameters_for_usa(): str" style="text;fillColor=none;align=left;verticalAlign=top;spacingLeft=4;spacingRight=4;overflow=hidden;rotatable=0;points=[[0,0.5],[1,0.5]];portConstraint=eastwest;fontColor=#393C56;" parent="fyw5Tm3V_V71cJC1jxcN-14" vertex="1"><mxGeometry y="30" width="160" height="30" as="geometry"/></mxCell><mxCell id="fyw5Tm3V_V71cJC1jxcN-18" style="edgeStyle=orthogonalEdgeStyle;orthogonalLoop=1;jettySize=auto;html=1;exitX=0;exitY=0.25;exitDx=0;exitDy=0;entryX=1;entryY=0.25;entryDx=0;entryDy=0;endSize=11;startSize=11;endArrow=block;endFill=0;labelBackgroundColor=#F4F1DE;strokeColor=#E07A5F;fontColor=#393C56;" parent="WIyWlLk6GJQsqaUBKTNV-1" source="fyw5Tm3V_V71cJC1jxcN-14" target="fyw5Tm3V_V71cJC1jxcN-1" edge="1"><mxGeometry relative="1" as="geometry"><mxPoint x="310" y="70" as="sourcePoint"/><mxPoint x="460" y="260" as="targetPoint"/></mxGeometry></mxCell><mxCell id="fyw5Tm3V_V71cJC1jxcN-19" value="Inherit" style="edgeLabel;html=1;align=center;verticalAlign=middle;resizable=0;points=[];labelBackgroundColor=#F4F1DE;fontColor=#393C56;" parent="fyw5Tm3V_V71cJC1jxcN-18" vertex="1" connectable="0"><mxGeometry x="0.2408" y="-2" relative="1" as="geometry"><mxPoint as="offset"/></mxGeometry></mxCell><mxCell id="fyw5Tm3V_V71cJC1jxcN-21" value="&lt;b style=&quot;font-style: normal&quot;&gt;CarAnalyticsForUSA&lt;/b&gt;" style="swimlane;fontStyle=2;align=center;verticalAlign=top;childLayout=stackLayout;horizontal=1;startSize=30;horizontalStack=0;resizeParent=1;resizeParentMax=0;resizeLast=0;collapsible=1;marginBottom=0;html=1;fillColor=#F2CC8F;strokeColor=#E07A5F;fontColor=#393C56;" parent="WIyWlLk6GJQsqaUBKTNV-1" vertex="1"><mxGeometry x="560" y="40" width="180" height="60" as="geometry"/></mxCell><mxCell id="fyw5Tm3V_V71cJC1jxcN-22" value="+ parameters_for_usa(dict): str" style="text;strokeColor=none;fillColor=none;align=left;verticalAlign=top;spacingLeft=4;spacingRight=4;overflow=hidden;rotatable=0;points=[[0,0.5],[1,0.5]];portConstraint=eastwest;fontColor=#393C56;" parent="fyw5Tm3V_V71cJC1jxcN-21" vertex="1"><mxGeometry y="30" width="180" height="30" as="geometry"/></mxCell><mxCell id="fyw5Tm3V_V71cJC1jxcN-23" style="edgeStyle=orthogonalEdgeStyle;orthogonalLoop=1;jettySize=auto;html=1;exitX=1;exitY=0.25;exitDx=0;exitDy=0;entryX=0;entryY=0.25;entryDx=0;entryDy=0;endSize=11;startSize=11;endArrow=block;endFill=0;labelBackgroundColor=#F4F1DE;strokeColor=#E07A5F;fontColor=#393C56;" parent="WIyWlLk6GJQsqaUBKTNV-1" source="fyw5Tm3V_V71cJC1jxcN-14" target="fyw5Tm3V_V71cJC1jxcN-21" edge="1"><mxGeometry relative="1" as="geometry"><mxPoint x="310" y="65" as="sourcePoint"/><mxPoint x="220" y="37.5" as="targetPoint"/></mxGeometry></mxCell><mxCell id="fyw5Tm3V_V71cJC1jxcN-24" value="Inherit" style="edgeLabel;html=1;align=center;verticalAlign=middle;resizable=0;points=[];labelBackgroundColor=#F4F1DE;fontColor=#393C56;" parent="fyw5Tm3V_V71cJC1jxcN-23" vertex="1" connectable="0"><mxGeometry x="0.2408" y="-2" relative="1" as="geometry"><mxPoint x="-12" as="offset"/></mxGeometry></mxCell><mxCell id="fyw5Tm3V_V71cJC1jxcN-25" value="" style="group;fontColor=#393C56;" parent="WIyWlLk6GJQsqaUBKTNV-1" vertex="1" connectable="0"><mxGeometry x="510" y="150" width="160" height="100" as="geometry"/></mxCell><mxCell id="fyw5Tm3V_V71cJC1jxcN-26" value="&lt;p style=&quot;margin: 0px ; margin-top: 4px ; text-align: center ; text-decoration: underline&quot;&gt;&lt;b&gt;сar2: CarAdapted&lt;/b&gt;&lt;/p&gt;&lt;hr&gt;&lt;p style=&quot;margin: 0px ; margin-left: 8px&quot;&gt;length = 5.1&lt;br&gt;width = 2.2&lt;br&gt;&lt;/p&gt;" style="verticalAlign=top;align=left;overflow=fill;fontSize=12;fontFamily=Helvetica;html=1;fillColor=#F2CC8F;strokeColor=#E07A5F;fontColor=#393C56;" parent="fyw5Tm3V_V71cJC1jxcN-25" vertex="1"><mxGeometry width="160" height="70" as="geometry"/></mxCell><mxCell id="fyw5Tm3V_V71cJC1jxcN-28" style="edgeStyle=orthogonalEdgeStyle;orthogonalLoop=1;jettySize=auto;html=1;entryX=1;entryY=0.5;entryDx=0;entryDy=0;endArrow=block;endFill=0;endSize=11;startSize=11;labelBackgroundColor=#F4F1DE;strokeColor=#E07A5F;fontColor=#393C56;exitX=0;exitY=0.25;exitDx=0;exitDy=0;" parent="WIyWlLk6GJQsqaUBKTNV-1" source="fyw5Tm3V_V71cJC1jxcN-26" target="fyw5Tm3V_V71cJC1jxcN-16" edge="1"><mxGeometry relative="1" as="geometry"><mxPoint x="480" y="210" as="sourcePoint"/><mxPoint x="60" y="37.5" as="targetPoint"/></mxGeometry></mxCell><mxCell id="fyw5Tm3V_V71cJC1jxcN-30" value="Client" style="html=1;fillColor=#F2CC8F;strokeColor=#E07A5F;fontColor=#393C56;" parent="WIyWlLk6GJQsqaUBKTNV-1" vertex="1"><mxGeometry x="305" y="250" width="110" height="50" as="geometry"/></mxCell><mxCell id="fyw5Tm3V_V71cJC1jxcN-31" style="edgeStyle=orthogonalEdgeStyle;orthogonalLoop=1;jettySize=auto;html=1;exitX=1;exitY=0.5;exitDx=0;exitDy=0;endSize=11;startSize=11;endArrow=open;endFill=0;dashed=1;entryX=0;entryY=0.5;entryDx=0;entryDy=0;labelBackgroundColor=#F4F1DE;strokeColor=#E07A5F;fontColor=#393C56;" parent="WIyWlLk6GJQsqaUBKTNV-1" source="fyw5Tm3V_V71cJC1jxcN-30" target="fyw5Tm3V_V71cJC1jxcN-16" edge="1"><mxGeometry relative="1" as="geometry"><mxPoint x="479.20000000000005" y="380.0486666666666" as="sourcePoint"/><mxPoint x="450" y="468" as="targetPoint"/></mxGeometry></mxCell><mxCell id="fyw5Tm3V_V71cJC1jxcN-32" value="Uses" style="edgeLabel;html=1;align=center;verticalAlign=middle;resizable=0;points=[];labelBackgroundColor=#F4F1DE;fontColor=#393C56;" parent="fyw5Tm3V_V71cJC1jxcN-31" vertex="1" connectable="0"><mxGeometry x="0.2408" y="-2" relative="1" as="geometry"><mxPoint as="offset"/></mxGeometry></mxCell><mxCell id="fyw5Tm3V_V71cJC1jxcN-33" value="Use" style="endArrow=open;endSize=12;dashed=1;html=1;exitX=0.5;exitY=0;exitDx=0;exitDy=0;entryX=0;entryY=0.5;entryDx=0;entryDy=0;labelBackgroundColor=#F4F1DE;strokeColor=#E07A5F;fontColor=#393C56;" parent="WIyWlLk6GJQsqaUBKTNV-1" source="fyw5Tm3V_V71cJC1jxcN-26" target="fyw5Tm3V_V71cJC1jxcN-22" edge="1"><mxGeometry width="160" relative="1" as="geometry"><mxPoint x="700" y="300" as="sourcePoint"/><mxPoint x="860" y="300" as="targetPoint"/><Array as="points"><mxPoint x="530" y="100"/></Array></mxGeometry></mxCell></root></mxGraphModel></diagram></mxfile>